<svg xmlns="http://www.w3.org/2000/svg" viewBox="0 0 260.62 212.16"><defs><style>.cls-1{fill:#fff;}</style></defs><title>bah-logo</title><g id="Capa_2" data-name="Capa 2"><g id="Capa_1-2" data-name="Capa 1"><path class="cls-1" d="M42,86H0V.28H4.71Q60.47.25,116.22.23q66.51-.09,133-.23a55,55,0,0,1,5.59.26c3.72.36,5.56,2.38,5.72,6.17,0,1.19.07,2.38.07,3.58q0,33.47,0,66.95c0,8.32-1.57,9.82-9.79,9.78-8.66,0-17.32,0-26,0-6,0-7.7-1.62-7.67-7.72,0-8.51.14-17,.22-25.52,0-1.35,0-2.69,0-4,0-5.14-1.83-7.06-7-7.07H49.22c-5.51,0-7.27,1.83-7.26,7.27q0,16.8.07,33.59C42,84.07,42,84.88,42,86Z"/><path class="cls-1" d="M1.24,104.29H40.63c0,.81,0,1.59,0,2.37,0,5.38-.14,10.76,0,16.12.24,7.38,2.89,13.5,10.32,16.24a25.46,25.46,0,0,0,8.33,1.34c11.34.15,22.69-.19,34,.13s21.51,4.43,30.68,11c2.1,1.51,4,3.24,5.62,4.52,5.05-3.28,9.77-6.82,14.92-9.57a53.89,53.89,0,0,1,26.3-6.09c10.22.09,20.44,0,30.67,0,11.07,0,17.72-6.56,17.82-17.6.06-6.11,0-12.21,0-18.45H257.9c.38,6,1.1,11.9,1.07,17.83a59.11,59.11,0,0,1-7.89,29.92,54,54,0,0,1-29.39,24.22,60.25,60.25,0,0,1-20.86,3.36c-9.62,0-19.25.1-28.88-.05a21.13,21.13,0,0,0-16.34,6.85c-7.93,8.21-16.09,16.2-24.16,24.28-.42.42-.87.8-1.53,1.4-1.58-1.64-3.11-3.25-4.67-4.82-6.94-7-14-13.9-20.82-21a21.15,21.15,0,0,0-16-6.72c-11.57,0-23.15.28-34.7-.26-16.39-.76-29.73-8.1-40.06-20.73C5,148,1.17,135.61,1.24,121.94,1.27,116.13,1.24,110.32,1.24,104.29Z"/></g></g></svg>